<?xml version="1.0" standalone="no"?>
<!DOCTYPE svg PUBLIC "-//W3C//DTD SVG 20010904//EN"
 "http://www.w3.org/TR/2001/REC-SVG-20010904/DTD/svg10.dtd">
<svg version="1.0" xmlns="http://www.w3.org/2000/svg"
 width="600.000000pt" height="600.000000pt" viewBox="0 0 600.000000 600.000000"
 preserveAspectRatio="xMidYMid meet">

<g transform="translate(0.000000,600.000000) scale(0.100000,-0.100000)"
 stroke="none">
<path d="M0 3000 l0 -3000 3000 0 3000 0 0 3000 0 3000 -3000 0 -3000 0 0
-3000z m4430 2544 c79 -37 151 -107 187 -183 35 -74 44 -205 19 -282 -22 -66
-408 -734 -449 -777 -193 -201 -522 -142 -639 113 -33 73 -33 228 0 300 45 98
398 699 435 741 77 87 170 125 297 121 70 -2 97 -8 150 -33z m931 -927 c75
-36 146 -108 183 -187 28 -59 31 -74 31 -165 0 -93 -2 -105 -33 -167 -20 -42
-51 -83 -81 -110 -45 -40 -641 -391 -748 -441 -70 -32 -226 -31 -298 1 -249
114 -312 426 -126 623 36 38 122 92 392 248 191 110 366 207 390 215 71 26
219 17 290 -17z m240 -1237 c125 -24 228 -103 282 -218 29 -61 32 -76 32 -162
0 -86 -3 -101 -32 -162 -54 -115 -157 -194 -282 -218 -69 -13 -791 -13 -859 0
-158 30 -281 155 -312 318 -38 192 107 403 304 442 61 12 803 12 867 0z m-916
-918 c51 -18 693 -383 753 -429 128 -97 178 -305 109 -456 -37 -80 -113 -158
-190 -193 -85 -38 -208 -45 -285 -16 -77 30 -717 400 -768 445 -28 25 -57 66
-81 114 -35 70 -37 82 -38 167 0 81 3 98 31 156 17 36 43 80 59 98 92 110 276
161 410 114z m-640 -673 c72 -27 135 -77 177 -141 80 -122 394 -677 411 -728
15 -42 18 -74 15 -137 -6 -106 -45 -190 -123 -262 -77 -70 -146 -95 -261 -96
-84 0 -95 2 -166 38 -49 24 -90 53 -113 79 -38 45 -413 688 -442 760 -13 30
-18 69 -18 133 0 80 4 97 32 157 88 188 293 270 488 197z m-880 -254 c76 -37
143 -104 181 -180 l29 -60 0 -465 0 -465 -33 -67 c-67 -137 -187 -212 -342
-212 -155 0 -275 75 -342 212 l-33 67 -3 444 c-3 497 -2 504 65 601 43 62 125
124 193 145 29 10 77 14 136 12 76 -2 99 -7 149 -32z"/>
</g>
</svg>
